<?xml version="1.0" encoding="UTF-8"?>
<svg xmlns="http://www.w3.org/2000/svg" version="1.1" viewBox="0 0 1024 768">
  <!-- Generator: Adobe Illustrator 29.6.1, SVG Export Plug-In . SVG Version: 2.1.1 Build 9)  -->
  <defs>
    <style>
      .st0 {
        fill: #fff;
      }

      .st1 {
        fill: #600039;
      }

      .st2 {
        fill: #65722e;
      }

      .st3 {
        fill: none;
      }

      .st3, .st4 {
        stroke: #65722e;
        stroke-miterlimit: 10;
        stroke-width: 15px;
      }

      .st4 {
        fill: #9fc131;
      }

      .st5 {
        display: none;
      }
    </style>
  </defs>
  <g id="Ebene_1" class="st5">
    <circle class="st1" cx="512" cy="384" r="307.72"/>
  </g>
  <g id="Ebene_1_Kopie">
    <path class="st4" d="M819.72,384c0-169.95-137.77-307.72-307.72-307.72S204.28,214.05,204.28,384c0,122.47,66.02,258.29,177.14,253.76,23.01-.94,37.58-25.85,37.58-25.85-2.52-10.94-13.35-90.33-2.81-175.14,11.43-92.02,35.77-160.28,59.55-156.7,26.82,4.04,17.17,77.05,5.74,169.08-10.64,85.67-57.02,154.25-61.61,163.16,0,0-10.74,40.22,25.14,64.93,18.65,12.85,46.14,17,78.2,7.24,19.31-5.88,30.81-30.19,30.81-30.19-2.41-4.65-13.31-34.25-8.49-62.51,5.44-31.92,15.18-52.32,24.77-51.5,9.59.82,11.46,25.82,5.43,58.89-5.27,28.93-19.42,52.18-21.96,55.48,0,0,9.18,18.43,26.15,23.01s34.13.42,47.66-12.89,29.86-52.87,29.86-52.87c-4.3-4.37-14.85-42.74-8.73-80.65,7-43.36,22.31-67.9,34.39-65.12,16.8,3.86,18.25,36.91,7.51,76.23-9.11,33.37-17.71,48.61-32.65,70.37,0,0,7,43.53,56.1,33.85,94.24-18.57,105.68-200.18,105.68-262.58Z"/>
  </g>
  <g id="Ebene_4">
    <g>
      <path class="st2" d="M782.81,240.68c-.58,3.09-45.74,25.92-94.44,16.77-48.7-9.15-60.98-26.92-57.52-45.33,3.46-18.41,21.35-30.5,70.05-21.35s83.19,43.12,81.91,49.91Z"/>
      <path class="st0" d="M755.71,213.4l-19.47-.4,20.83,14.82-26.05,3.28,24.57,4.62-20.07,5.31,19.3,3.63-26.38,5.03,17.1,6.18c21.92-5,36.92-13.26,37.25-15.04.71-3.76-9.54-15.83-27.08-27.42Z"/>
    </g>
    <g>
      <path class="st2" d="M783.78,241.41c1.85,2.54-7.39,47.36-41.15,71.97-33.76,24.61-53.16,19.95-64.2,4.81-11.04-15.14-9.52-35.04,24.24-59.64,33.76-24.61,77.04-22.72,81.11-17.14Z"/>
      <path class="st0" d="M749.36,239.51l-11.2,12.13,22.12-2.87-12.3,18.91,17.03-12.41-7.51,16.52,13.38-9.75-11.25,20.35,13.94-6.56c8.77-17.48,11.35-32.85,10.29-34.3-2.25-3.09-16.51-5.04-34.51-2.01Z"/>
    </g>
    <g>
      <path class="st2" d="M782.06,240.45c-.83-3.03,29.72-43.37,77.49-56.53,47.77-13.16,66.6-2.59,71.58,15.47,4.97,18.06-5.79,36.78-53.56,49.94-47.77,13.16-93.67-2.22-95.51-8.88Z"/>
      <path class="st0" d="M818.38,253.06l17.67-8.19-25.22-4.17,21.97-14.38-24.1,6.64,15.7-13.58-18.94,5.21,21.49-16.1-18.08,1.96c-17.5,14.12-27.35,28.13-26.87,29.86,1.02,3.69,15.52,10.04,36.37,12.75Z"/>
    </g>
  </g>
  <g id="Ebene_2">
    <path class="st3" d="M363.66,180.79S195.57,43.67,165.56,644.89c-3.23,64.78-30.31-384.23,28.14-553.07"/>
  </g>
</svg>